Adsworth-8PTG0XT.ufo
<glyph name="A" format="2">
  <advance width="1401.0"/>
  <outline>
    <contour>
      <point x="1202.0" y="355.0" type="line"/>
      <point x="230.0" y="355.0" type="line"/>
      <point x="248.0" y="495.0" type="line"/>
      <point x="1183.0" y="495.0" type="line"/>
    </contour>
    <contour>
      <point x="786.0" y="1500.0" type="line"/>
      <point x="1381.0" y="0.0" type="line"/>
      <point x="1184.0" y="0.0" type="line"/>
      <point x="712.0" y="1227.0" type="line"/>
      <point x="691.0" y="1228.0" type="line"/>
      <point x="228.0" y="0.0" type="line"/>
      <point x="20.0" y="0.0" type="line"/>
      <point x="614.0" y="1499.0" type="line"/>
    </contour>
  </outline>
</glyph>
<glyph name="B" format="2">
  <advance width="1454.0"/>
  <outline>
    <contour>
      <point x="275.0" y="0.0" type="line"/>
      <point x="275.0" y="1500.0" type="line"/>
      <point x="464.0" y="1500.0" type="line"/>
      <point x="464.0" y="0.0" type="line"/>
    </contour>
    <contour>
      <point x="886.0" y="825.0" type="line"/>
      <point x="1088.0" y="835.0"/>
      <point x="1354.0" y="628.0"/>
      <point x="1354.0" y="442.0" type="qcurve" smooth="yes"/>
      <point x="1354.0" y="415.0" type="line" smooth="yes"/>
      <point x="1354.0" y="231.0"/>
      <point x="1123.0" y="0.0"/>
      <point x="920.0" y="0.0" type="qcurve" smooth="yes"/>
      <point x="354.0" y="0.0" type="line"/>
      <point x="354.0" y="126.0" type="line"/>
      <point x="823.0" y="126.0" type="line" smooth="yes"/>
      <point x="975.0" y="126.0"/>
      <point x="1192.0" y="299.0"/>
      <point x="1192.0" y="436.0" type="qcurve" smooth="yes"/>
      <point x="1192.0" y="455.0" type="line" smooth="yes"/>
      <point x="1192.0" y="578.0"/>
      <point x="967.0" y="734.0"/>
      <point x="833.0" y="734.0" type="qcurve" smooth="yes"/>
      <point x="354.0" y="734.0" type="line"/>
      <point x="354.0" y="864.0" type="line"/>
      <point x="745.0" y="864.0" type="line" smooth="yes"/>
      <point x="919.0" y="864.0"/>
      <point x="1087.0" y="987.0"/>
      <point x="1087.0" y="1119.0" type="qcurve" smooth="yes"/>
      <point x="1087.0" y="1126.0" type="line" smooth="yes"/>
      <point x="1087.0" y="1233.0"/>
      <point x="928.0" y="1373.0"/>
      <point x="765.0" y="1373.0" type="qcurve" smooth="yes"/>
      <point x="354.0" y="1373.0" type="line"/>
      <point x="354.0" y="1500.0" type="line"/>
      <point x="895.0" y="1500.0" type="line" smooth="yes"/>
      <point x="1072.0" y="1500.0"/>
      <point x="1255.0" y="1309.0"/>
      <point x="1255.0" y="1151.0" type="qcurve" smooth="yes"/>
      <point x="1255.0" y="1140.0" type="line" smooth="yes"/>
      <point x="1255.0" y="972.0"/>
      <point x="1065.0" y="790.0"/>
      <point x="920.0" y="790.0" type="qcurve"/>
    </contour>
  </outline>
</glyph>
<glyph name="I" format="2">
  <advance width="922.0"/>
  <outline>
    <contour>
      <point x="367.0" y="0.0" type="line"/>
      <point x="367.0" y="1500.0" type="line"/>
      <point x="557.0" y="1500.0" type="line"/>
      <point x="557.0" y="0.0" type="line"/>
    </contour>
    <contour>
      <point x="796.0" y="0.0" type="line"/>
      <point x="126.0" y="0.0" type="line"/>
      <point x="126.0" y="125.0" type="line"/>
      <point x="796.0" y="125.0" type="line"/>
    </contour>
    <contour>
      <point x="796.0" y="1375.0" type="line"/>
      <point x="126.0" y="1375.0" type="line"/>
      <point x="126.0" y="1500.0" type="line"/>
      <point x="796.0" y="1500.0" type="line"/>
    </contour>
  </outline>
</glyph>
<glyph name="N" format="2">
  <advance width="1665.0"/>
  <outline>
    <contour>
      <point x="254.0" y="0.0" type="line"/>
      <point x="254.0" y="1500.0" type="line"/>
      <point x="394.0" y="1498.0" type="line"/>
      <point x="1251.0" y="255.0" type="line"/>
      <point x="1251.0" y="1500.0" type="line"/>
      <point x="1411.0" y="1500.0" type="line"/>
      <point x="1411.0" y="0.0" type="line"/>
      <point x="1251.0" y="0.0" type="line"/>
      <point x="1251.0" y="13.0" type="line"/>
      <point x="394.0" y="1286.0" type="line"/>
      <point x="394.0" y="0.0" type="line"/>
    </contour>
  </outline>
</glyph>
<glyph name="P" format="2">
  <advance width="1347.0"/>
  <outline>
    <contour>
      <point x="254.0" y="0.0" type="line"/>
      <point x="254.0" y="1500.0" type="line"/>
      <point x="451.0" y="1500.0" type="line"/>
      <point x="451.0" y="0.0" type="line"/>
    </contour>
    <contour>
      <point x="788.0" y="577.0" type="qcurve" smooth="yes"/>
      <point x="370.0" y="577.0" type="line"/>
      <point x="370.0" y="717.0" type="line"/>
      <point x="674.0" y="717.0" type="line" smooth="yes"/>
      <point x="872.0" y="717.0"/>
      <point x="1060.0" y="892.0"/>
      <point x="1060.0" y="1055.0" type="qcurve" smooth="yes"/>
      <point x="1060.0" y="1063.0" type="line" smooth="yes"/>
      <point x="1060.0" y="1218.0"/>
      <point x="881.0" y="1366.0"/>
      <point x="727.0" y="1366.0" type="qcurve" smooth="yes"/>
      <point x="370.0" y="1366.0" type="line"/>
      <point x="370.0" y="1500.0" type="line"/>
      <point x="827.0" y="1500.0" type="line" smooth="yes"/>
      <point x="1014.0" y="1500.0"/>
      <point x="1251.0" y="1264.0"/>
      <point x="1251.0" y="1064.0" type="qcurve" smooth="yes"/>
      <point x="1251.0" y="1057.0" type="line" smooth="yes"/>
      <point x="1251.0" y="828.0"/>
      <point x="1032.0" y="578.0"/>
    </contour>
  </outline>
</glyph>
<glyph name="Q" format="2">
  <advance width="1662.0"/>
  <outline>
    <contour>
      <point x="828.0" y="-21.0" type="line" smooth="yes"/>
      <point x="512.0" y="-21.0"/>
      <point x="126.0" y="404.0"/>
      <point x="126.0" y="736.0" type="qcurve" smooth="yes"/>
      <point x="126.0" y="779.0" type="line" smooth="yes"/>
      <point x="126.0" y="1101.0"/>
      <point x="507.0" y="1528.0"/>
      <point x="823.0" y="1528.0" type="qcurve" smooth="yes"/>
      <point x="832.0" y="1528.0" type="line" smooth="yes"/>
      <point x="1156.0" y="1528.0"/>
      <point x="1537.0" y="1101.0"/>
      <point x="1537.0" y="779.0" type="qcurve" smooth="yes"/>
      <point x="1537.0" y="736.0" type="line" smooth="yes"/>
      <point x="1537.0" y="434.0"/>
      <point x="1131.0" y="-21.0"/>
      <point x="838.0" y="-21.0" type="qcurve" smooth="yes"/>
    </contour>
    <contour>
      <point x="833.0" y="94.0" type="line" smooth="yes"/>
      <point x="1075.0" y="94.0"/>
      <point x="1335.0" y="473.0"/>
      <point x="1335.0" y="724.0" type="qcurve" smooth="yes"/>
      <point x="1335.0" y="748.0" type="line" smooth="yes"/>
      <point x="1335.0" y="999.0"/>
      <point x="1077.0" y="1384.0"/>
      <point x="833.0" y="1384.0" type="qcurve" smooth="yes"/>
      <point x="823.0" y="1384.0" type="line" smooth="yes"/>
      <point x="592.0" y="1384.0"/>
      <point x="327.0" y="999.0"/>
      <point x="327.0" y="748.0" type="qcurve" smooth="yes"/>
      <point x="327.0" y="724.0" type="line" smooth="yes"/>
      <point x="327.0" y="473.0"/>
      <point x="588.0" y="94.0"/>
      <point x="823.0" y="94.0" type="qcurve" smooth="yes"/>
    </contour>
    <contour>
      <point x="703.0" y="-9.0" type="line"/>
      <point x="1596.0" y="55.0" type="line"/>
      <point x="1596.0" y="-110.0" type="line"/>
      <point x="704.0" y="-48.0" type="line"/>
    </contour>
  </outline>
</glyph>
<glyph name="X" format="2">
  <advance width="1344.0"/>
  <outline>
    <contour>
      <point x="42.0" y="0.0" type="line"/>
      <point x="593.0" y="845.0" type="line"/>
      <point x="628.0" y="851.0" type="line"/>
      <point x="1046.0" y="1500.0" type="line"/>
      <point x="1252.0" y="1500.0" type="line"/>
      <point x="736.0" y="707.0" type="line"/>
      <point x="694.0" y="692.0" type="line"/>
      <point x="248.0" y="0.0" type="line"/>
    </contour>
    <contour>
      <point x="1062.0" y="0.0" type="line"/>
      <point x="610.0" y="683.0" type="line"/>
      <point x="603.0" y="689.0" type="line"/>
      <point x="63.0" y="1500.0" type="line"/>
      <point x="300.0" y="1500.0" type="line"/>
      <point x="712.0" y="874.0" type="line"/>
      <point x="721.0" y="867.0" type="line"/>
      <point x="1302.0" y="0.0" type="line"/>
    </contour>
  </outline>
</glyph>
<glyph name="Y" format="2">
  <advance width="1150.0"/>
  <outline>
    <contour>
      <point x="489.0" y="500.0" type="line"/>
      <point x="-90.0" y="1500.0" type="line"/>
      <point x="170.0" y="1500.0" type="line"/>
      <point x="577.0" y="739.0" type="line"/>
      <point x="1007.0" y="1500.0" type="line"/>
      <point x="1240.0" y="1500.0" type="line"/>
      <point x="662.0" y="500.0" type="line"/>
    </contour>
    <contour>
      <point x="478.0" y="0.0" type="line"/>
      <point x="478.0" y="520.0" type="line"/>
      <point x="673.0" y="520.0" type="line"/>
      <point x="673.0" y="0.0" type="line"/>
    </contour>
  </outline>
</glyph>
<glyph name="a" format="2">
  <advance width="1240.0"/>
  <outline>
    <contour>
      <point x="161.0" y="967.0" type="line"/>
      <point x="222.0" y="1004.0"/>
      <point x="441.0" y="1081.0"/>
      <point x="582.0" y="1081.0" type="qcurve" smooth="yes"/>
      <point x="847.0" y="1081.0"/>
      <point x="1054.0" y="902.0"/>
      <point x="1057.0" y="721.0" type="qcurve" smooth="yes"/>
      <point x="1060.0" y="1.0" type="line"/>
      <point x="888.0" y="1.0" type="line"/>
      <point x="878.0" y="753.0" type="line" smooth="yes"/>
      <point x="877.0" y="841.0"/>
      <point x="740.0" y="979.0"/>
      <point x="591.0" y="979.0" type="qcurve" smooth="yes"/>
      <point x="501.0" y="979.0"/>
      <point x="262.0" y="913.0"/>
      <point x="183.0" y="857.0" type="qcurve"/>
    </contour>
    <contour>
      <point x="1035.0" y="300.0" type="line"/>
      <point x="980.0" y="190.0"/>
      <point x="689.0" y="-22.0"/>
      <point x="518.0" y="-22.0" type="qcurve" smooth="yes"/>
      <point x="313.0" y="-22.0"/>
      <point x="79.0" y="151.0"/>
      <point x="79.0" y="308.0" type="qcurve" smooth="yes"/>
      <point x="79.0" y="451.0"/>
      <point x="329.0" y="640.0"/>
      <point x="525.0" y="640.0" type="qcurve" smooth="yes"/>
      <point x="728.0" y="640.0"/>
      <point x="948.0" y="550.0"/>
      <point x="1037.0" y="476.0" type="qcurve"/>
      <point x="1037.0" y="486.0" type="line"/>
      <point x="934.0" y="514.0"/>
      <point x="690.0" y="558.0"/>
      <point x="582.0" y="558.0" type="qcurve" smooth="yes"/>
      <point x="455.0" y="558.0"/>
      <point x="265.0" y="420.0"/>
      <point x="265.0" y="308.0" type="qcurve" smooth="yes"/>
      <point x="265.0" y="193.0"/>
      <point x="434.0" y="65.0"/>
      <point x="573.0" y="65.0" type="qcurve" smooth="yes"/>
      <point x="685.0" y="65.0"/>
      <point x="899.0" y="153.0"/>
      <point x="1035.0" y="311.0" type="qcurve"/>
    </contour>
  </outline>
</glyph>
<glyph name="ampersand" format="2">
  <advance width="1431.0"/>
  <outline>
    <contour>
      <point x="868.0" y="617.0" type="line"/>
      <point x="1339.0" y="805.0" type="line"/>
      <point x="1383.0" y="680.0" type="line"/>
      <point x="897.0" y="528.0" type="line"/>
    </contour>
    <contour>
      <point x="765.0" y="715.0" type="line"/>
      <point x="621.0" y="715.0" type="line" smooth="yes"/>
      <point x="516.0" y="715.0"/>
      <point x="293.0" y="576.0"/>
      <point x="293.0" y="428.0" type="qcurve" smooth="yes"/>
      <point x="293.0" y="419.0" type="line" smooth="yes"/>
      <point x="293.0" y="269.0"/>
      <point x="482.0" y="102.0"/>
      <point x="666.0" y="102.0" type="qcurve" smooth="yes"/>
      <point x="695.0" y="102.0" type="line" smooth="yes"/>
      <point x="887.0" y="102.0"/>
      <point x="1109.0" y="263.0"/>
      <point x="1109.0" y="424.0" type="qcurve" smooth="yes"/>
      <point x="1109.0" y="435.0" type="line" smooth="yes"/>
      <point x="1109.0" y="486.0"/>
      <point x="1073.0" y="586.0"/>
      <point x="1051.0" y="624.0" type="qcurve"/>
      <point x="1156.0" y="651.0" type="line"/>
      <point x="1196.0" y="613.0"/>
      <point x="1264.0" y="461.0"/>
      <point x="1264.0" y="402.0" type="qcurve" smooth="yes"/>
      <point x="1264.0" y="389.0" type="line" smooth="yes"/>
      <point x="1264.0" y="238.0"/>
      <point x="969.0" y="-35.0"/>
      <point x="676.0" y="-35.0" type="qcurve" smooth="yes"/>
      <point x="669.0" y="-35.0" type="line" smooth="yes"/>
      <point x="392.0" y="-35.0"/>
      <point x="98.0" y="212.0"/>
      <point x="98.0" y="401.0" type="qcurve" smooth="yes"/>
      <point x="98.0" y="431.0" type="line" smooth="yes"/>
      <point x="98.0" y="586.0"/>
      <point x="289.0" y="773.0"/>
      <point x="415.0" y="795.0" type="qcurve"/>
      <point x="300.0" y="816.0"/>
      <point x="162.0" y="974.0"/>
      <point x="162.0" y="1112.0" type="qcurve" smooth="yes"/>
      <point x="162.0" y="1138.0" type="line" smooth="yes"/>
      <point x="162.0" y="1305.0"/>
      <point x="411.0" y="1523.0"/>
      <point x="591.0" y="1523.0" type="qcurve" smooth="yes"/>
      <point x="597.0" y="1523.0" type="line" smooth="yes"/>
      <point x="792.0" y="1523.0"/>
      <point x="1052.0" y="1326.0"/>
      <point x="1052.0" y="1149.0" type="qcurve" smooth="yes"/>
      <point x="1052.0" y="1130.0" type="line"/>
      <point x="911.0" y="1132.0" type="line"/>
      <point x="911.0" y="1153.0" type="line" smooth="yes"/>
      <point x="911.0" y="1260.0"/>
      <point x="761.0" y="1392.0"/>
      <point x="616.0" y="1392.0" type="qcurve" smooth="yes"/>
      <point x="612.0" y="1392.0" type="line" smooth="yes"/>
      <point x="477.0" y="1392.0"/>
      <point x="320.0" y="1230.0"/>
      <point x="320.0" y="1099.0" type="qcurve" smooth="yes"/>
      <point x="320.0" y="1079.0" type="line" smooth="yes"/>
      <point x="320.0" y="951.0"/>
      <point x="461.0" y="842.0"/>
      <point x="576.0" y="837.0" type="qcurve" smooth="yes"/>
      <point x="748.0" y="837.0" type="line"/>
    </contour>
  </outline>
</glyph>
<glyph name="asterisk" format="2">
  <advance width="1217.0"/>
  <outline>
    <contour>
      <point x="640.0" y="989.0" type="line"/>
      <point x="400.0" y="590.0" type="line"/>
      <point x="256.0" y="699.0" type="line"/>
      <point x="548.0" y="1058.0" type="line"/>
      <point x="121.0" y="1167.0" type="line"/>
      <point x="186.0" y="1344.0" type="line"/>
      <point x="582.0" y="1178.0" type="line"/>
      <point x="546.0" y="1614.0" type="line"/>
      <point x="734.0" y="1614.0" type="line"/>
      <point x="697.0" y="1178.0" type="line"/>
      <point x="1101.0" y="1343.0" type="line"/>
      <point x="1161.0" y="1165.0" type="line"/>
      <point x="729.0" y="1061.0" type="line"/>
      <point x="1031.0" y="699.0" type="line"/>
      <point x="880.0" y="591.0" type="line"/>
    </contour>
  </outline>
</glyph>
<glyph name="at" format="2">
  <advance width="1931.0"/>
  <outline>
    <contour>
      <point x="1254.0" y="689.0" type="qcurve" smooth="yes"/>
      <point x="1249.0" y="660.0" type="line" smooth="yes"/>
      <point x="1214.0" y="455.0"/>
      <point x="950.0" y="251.0"/>
      <point x="790.0" y="251.0" type="qcurve" smooth="yes"/>
      <point x="784.0" y="251.0" type="line" smooth="yes"/>
      <point x="619.0" y="251.0"/>
      <point x="464.0" y="534.0"/>
      <point x="512.0" y="734.0" type="qcurve" smooth="yes"/>
      <point x="519.0" y="763.0" type="line" smooth="yes"/>
      <point x="562.0" y="943.0"/>
      <point x="779.0" y="1121.0"/>
      <point x="937.0" y="1121.0" type="qcurve" smooth="yes"/>
      <point x="944.0" y="1121.0" type="line" smooth="yes"/>
      <point x="1102.0" y="1121.0"/>
      <point x="1286.0" y="875.0"/>
    </contour>
    <contour>
      <point x="1170.0" y="664.0" type="line" smooth="yes"/>
      <point x="1200.0" y="820.0"/>
      <point x="1066.0" y="1023.0"/>
      <point x="952.0" y="1023.0" type="qcurve" smooth="yes"/>
      <point x="948.0" y="1023.0" type="line" smooth="yes"/>
      <point x="864.0" y="1023.0"/>
      <point x="727.0" y="906.0"/>
      <point x="690.0" y="756.0" type="qcurve" smooth="yes"/>
      <point x="685.0" y="736.0" type="line" smooth="yes"/>
      <point x="639.0" y="550.0"/>
      <point x="731.0" y="345.0"/>
      <point x="861.0" y="345.0" type="qcurve" smooth="yes"/>
      <point x="865.0" y="345.0" type="line" smooth="yes"/>
      <point x="970.0" y="345.0"/>
      <point x="1140.0" y="495.0"/>
      <point x="1167.0" y="646.0" type="qcurve" smooth="yes"/>
    </contour>
    <contour>
      <point x="1149.0" y="558.0" type="qcurve" smooth="yes"/>
      <point x="1277.0" y="1113.0" type="line"/>
      <point x="1438.0" y="1113.0" type="line"/>
      <point x="1332.0" y="516.0" type="line" smooth="yes"/>
      <point x="1321.0" y="456.0"/>
      <point x="1376.0" y="365.0"/>
      <point x="1433.0" y="365.0" type="qcurve" smooth="yes"/>
      <point x="1589.0" y="365.0"/>
      <point x="1801.0" y="598.0"/>
      <point x="1801.0" y="811.0" type="qcurve" smooth="yes"/>
      <point x="1801.0" y="1106.0"/>
      <point x="1346.0" y="1464.0"/>
      <point x="980.0" y="1464.0" type="qcurve" smooth="yes"/>
      <point x="627.0" y="1464.0"/>
      <point x="140.0" y="1001.0"/>
      <point x="140.0" y="675.0" type="qcurve" smooth="yes"/>
      <point x="140.0" y="297.0"/>
      <point x="652.0" y="-112.0"/>
      <point x="962.0" y="-112.0" type="qcurve" smooth="yes"/>
      <point x="1178.0" y="-112.0"/>
      <point x="1460.0" y="13.0"/>
      <point x="1527.0" y="89.0" type="qcurve"/>
      <point x="1574.0" y="34.0" type="line"/>
      <point x="1496.0" y="-47.0"/>
      <point x="1205.0" y="-182.0"/>
      <point x="957.0" y="-182.0" type="qcurve" smooth="yes"/>
      <point x="612.0" y="-182.0"/>
      <point x="50.0" y="282.0"/>
      <point x="50.0" y="675.0" type="qcurve" smooth="yes"/>
      <point x="50.0" y="1057.0"/>
      <point x="584.0" y="1529.0"/>
      <point x="980.0" y="1529.0" type="qcurve" smooth="yes"/>
      <point x="1415.0" y="1529.0"/>
      <point x="1891.0" y="1130.0"/>
      <point x="1891.0" y="830.0" type="qcurve" smooth="yes"/>
      <point x="1891.0" y="563.0"/>
      <point x="1548.0" y="269.0"/>
      <point x="1328.0" y="269.0" type="qcurve" smooth="yes"/>
      <point x="1189.0" y="269.0"/>
      <point x="1126.0" y="449.0"/>
    </contour>
  </outline>
</glyph>
<glyph name="b" format="2">
  <advance width="1415.0"/>
  <outline>
    <contour>
      <point x="195.0" y="2.0" type="line"/>
      <point x="195.0" y="1540.0" type="line"/>
      <point x="375.0" y="1540.0" type="line"/>
      <point x="365.0" y="2.0" type="line"/>
    </contour>
    <contour>
      <point x="280.0" y="540.0" type="line" smooth="yes"/>
      <point x="280.0" y="769.0"/>
      <point x="563.0" y="1082.0"/>
      <point x="804.0" y="1082.0" type="qcurve" smooth="yes"/>
      <point x="812.0" y="1082.0" type="line" smooth="yes"/>
      <point x="1052.0" y="1082.0"/>
      <point x="1313.0" y="751.0"/>
      <point x="1313.0" y="540.0" type="qcurve" smooth="yes"/>
      <point x="1313.0" y="514.0" type="line" smooth="yes"/>
      <point x="1313.0" y="293.0"/>
      <point x="1066.0" y="-22.0"/>
      <point x="816.0" y="-22.0" type="qcurve" smooth="yes"/>
      <point x="809.0" y="-22.0" type="line" smooth="yes"/>
      <point x="568.0" y="-22.0"/>
      <point x="280.0" y="324.0"/>
      <point x="280.0" y="514.0" type="qcurve" smooth="yes"/>
    </contour>
    <contour>
      <point x="384.0" y="544.0" type="qcurve" smooth="yes"/>
      <point x="384.0" y="521.0" type="line" smooth="yes"/>
      <point x="384.0" y="311.0"/>
      <point x="617.0" y="82.0"/>
      <point x="778.0" y="82.0" type="qcurve" smooth="yes"/>
      <point x="787.0" y="82.0" type="line" smooth="yes"/>
      <point x="924.0" y="82.0"/>
      <point x="1133.0" y="313.0"/>
      <point x="1133.0" y="521.0" type="qcurve" smooth="yes"/>
      <point x="1133.0" y="553.0" type="line" smooth="yes"/>
      <point x="1133.0" y="763.0"/>
      <point x="917.0" y="978.0"/>
      <point x="777.0" y="978.0" type="qcurve" smooth="yes"/>
      <point x="768.0" y="978.0" type="line" smooth="yes"/>
      <point x="619.0" y="978.0"/>
      <point x="384.0" y="740.0"/>
    </contour>
  </outline>
</glyph>
<glyph name="braceleft" format="2">
  <advance width="748.0"/>
  <outline>
    <contour>
      <point x="104.0" y="541.0" type="line"/>
      <point x="199.0" y="541.0"/>
      <point x="296.0" y="505.0"/>
      <point x="296.0" y="445.0" type="qcurve" smooth="yes"/>
      <point x="296.0" y="415.0"/>
      <point x="246.0" y="321.0"/>
      <point x="215.0" y="278.0" type="qcurve" smooth="yes"/>
      <point x="179.0" y="229.0"/>
      <point x="107.0" y="114.0"/>
      <point x="107.0" y="-8.0" type="qcurve" smooth="yes"/>
      <point x="107.0" y="-102.0"/>
      <point x="324.0" y="-303.0"/>
      <point x="540.0" y="-343.0" type="qcurve"/>
      <point x="610.0" y="-235.0" type="line"/>
      <point x="475.0" y="-206.0"/>
      <point x="301.0" y="-28.0"/>
      <point x="301.0" y="9.0" type="qcurve" smooth="yes"/>
      <point x="301.0" y="90.0"/>
      <point x="356.0" y="194.0"/>
      <point x="386.0" y="241.0" type="qcurve" smooth="yes"/>
      <point x="417.0" y="290.0"/>
      <point x="474.0" y="386.0"/>
      <point x="474.0" y="461.0" type="qcurve" smooth="yes"/>
      <point x="474.0" y="496.0"/>
      <point x="410.0" y="580.0"/>
      <point x="344.0" y="601.0" type="qcurve"/>
      <point x="411.0" y="624.0"/>
      <point x="474.0" y="726.0"/>
      <point x="474.0" y="765.0" type="qcurve" smooth="yes"/>
      <point x="474.0" y="836.0"/>
      <point x="422.0" y="930.0"/>
      <point x="393.0" y="979.0" type="qcurve" smooth="yes"/>
      <point x="367.0" y="1021.0"/>
      <point x="302.0" y="1132.0"/>
      <point x="302.0" y="1207.0" type="qcurve" smooth="yes"/>
      <point x="302.0" y="1249.0"/>
      <point x="465.0" y="1397.0"/>
      <point x="617.0" y="1438.0" type="qcurve"/>
      <point x="546.0" y="1552.0" type="line"/>
      <point x="334.0" y="1490.0"/>
      <point x="106.0" y="1300.0"/>
      <point x="106.0" y="1218.0" type="qcurve" smooth="yes"/>
      <point x="106.0" y="1120.0"/>
      <point x="187.0" y="993.0"/>
      <point x="219.0" y="949.0" type="qcurve" smooth="yes"/>
      <point x="250.0" y="907.0"/>
      <point x="296.0" y="817.0"/>
      <point x="296.0" y="773.0" type="qcurve" smooth="yes"/>
      <point x="296.0" y="710.0"/>
      <point x="176.0" y="681.0"/>
      <point x="104.0" y="681.0" type="qcurve"/>
    </contour>
  </outline>
</glyph>
<glyph name="c" format="2">
  <advance width="1206.0"/>
  <outline>
    <contour>
      <point x="1155.0" y="378.0" type="line"/>
      <point x="1152.0" y="351.0" type="line" smooth="yes"/>
      <point x="1133.0" y="203.0"/>
      <point x="893.0" y="-25.0"/>
      <point x="658.0" y="-25.0" type="qcurve" smooth="yes"/>
      <point x="649.0" y="-25.0" type="line" smooth="yes"/>
      <point x="405.0" y="-25.0"/>
      <point x="102.0" y="259.0"/>
      <point x="102.0" y="504.0" type="qcurve" smooth="yes"/>
      <point x="102.0" y="540.0" type="line" smooth="yes"/>
      <point x="102.0" y="785.0"/>
      <point x="395.0" y="1082.0"/>
      <point x="636.0" y="1082.0" type="qcurve" smooth="yes"/>
      <point x="660.0" y="1082.0" type="line" smooth="yes"/>
      <point x="893.0" y="1082.0"/>
      <point x="1135.0" y="865.0"/>
      <point x="1151.0" y="682.0" type="qcurve" smooth="yes"/>
      <point x="1153.0" y="654.0" type="line"/>
      <point x="992.0" y="654.0" type="line"/>
      <point x="990.0" y="683.0" type="line" smooth="yes"/>
      <point x="983.0" y="806.0"/>
      <point x="817.0" y="979.0"/>
      <point x="661.0" y="979.0" type="qcurve" smooth="yes"/>
      <point x="650.0" y="979.0" type="line" smooth="yes"/>
      <point x="495.0" y="979.0"/>
      <point x="296.0" y="761.0"/>
      <point x="296.0" y="571.0" type="qcurve" smooth="yes"/>
      <point x="296.0" y="480.0" type="line" smooth="yes"/>
      <point x="296.0" y="291.0"/>
      <point x="498.0" y="81.0"/>
      <point x="656.0" y="81.0" type="qcurve" smooth="yes"/>
      <point x="675.0" y="81.0" type="line" smooth="yes"/>
      <point x="822.0" y="81.0"/>
      <point x="979.0" y="263.0"/>
      <point x="990.0" y="364.0" type="qcurve" smooth="yes"/>
      <point x="993.0" y="380.0" type="line"/>
    </contour>
  </outline>
</glyph>
<glyph name="equal" format="2">
  <advance width="1500.0"/>
  <outline>
    <contour>
      <point x="1226.0" y="443.0" type="line"/>
      <point x="266.0" y="443.0" type="line"/>
      <point x="266.0" y="603.0" type="line"/>
      <point x="1227.0" y="603.0" type="line"/>
    </contour>
    <contour>
      <point x="1226.0" y="835.0" type="line"/>
      <point x="266.0" y="835.0" type="line"/>
      <point x="266.0" y="995.0" type="line"/>
      <point x="1226.0" y="995.0" type="line"/>
    </contour>
  </outline>
</glyph>
<glyph name="five" format="2">
  <advance width="1046.0"/>
  <outline>
    <contour>
      <point x="578.0" y="999.0" type="line" smooth="yes"/>
      <point x="784.0" y="999.0"/>
      <point x="1003.0" y="748.0"/>
      <point x="1003.0" y="510.0" type="qcurve" smooth="yes"/>
      <point x="1003.0" y="500.0" type="line" smooth="yes"/>
      <point x="1003.0" y="269.0"/>
      <point x="736.0" y="-25.0"/>
      <point x="518.0" y="-25.0" type="qcurve" smooth="yes"/>
      <point x="497.0" y="-25.0" type="line" smooth="yes"/>
      <point x="285.0" y="-25.0"/>
      <point x="34.0" y="195.0"/>
      <point x="28.0" y="352.0" type="qcurve" smooth="yes"/>
      <point x="26.0" y="468.0" type="line"/>
      <point x="208.0" y="470.0" type="line"/>
      <point x="207.0" y="348.0" type="line" smooth="yes"/>
      <point x="203.0" y="240.0"/>
      <point x="375.0" y="78.0"/>
      <point x="515.0" y="78.0" type="qcurve" smooth="yes"/>
      <point x="521.0" y="78.0" type="line" smooth="yes"/>
      <point x="659.0" y="78.0"/>
      <point x="841.0" y="275.0"/>
      <point x="841.0" y="476.0" type="qcurve" smooth="yes"/>
      <point x="841.0" y="510.0" type="line" smooth="yes"/>
      <point x="841.0" y="726.0"/>
      <point x="661.0" y="889.0"/>
      <point x="548.0" y="889.0" type="qcurve" smooth="yes"/>
      <point x="503.0" y="889.0" type="line" smooth="yes"/>
      <point x="395.0" y="889.0"/>
      <point x="265.0" y="765.0"/>
      <point x="226.0" y="681.0" type="qcurve"/>
      <point x="63.0" y="682.0" type="line"/>
      <point x="105.0" y="1500.0" type="line"/>
      <point x="909.0" y="1500.0" type="line"/>
      <point x="909.0" y="1372.0" type="line"/>
      <point x="237.0" y="1372.0" type="line"/>
      <point x="204.0" y="837.0" type="line"/>
      <point x="222.0" y="880.0"/>
      <point x="421.0" y="999.0"/>
      <point x="530.0" y="999.0" type="qcurve" smooth="yes"/>
    </contour>
  </outline>
</glyph>
<glyph name="h" format="2">
  <advance width="1365.0"/>
  <outline>
    <contour>
      <point x="195.0" y="0.0" type="line"/>
      <point x="195.0" y="1540.0" type="line"/>
      <point x="365.0" y="1540.0" type="line"/>
      <point x="375.0" y="0.0" type="line"/>
    </contour>
    <contour>
      <point x="237.0" y="666.0" type="line"/>
      <point x="278.0" y="820.0"/>
      <point x="601.0" y="1080.0"/>
      <point x="799.0" y="1080.0" type="qcurve" smooth="yes"/>
      <point x="974.0" y="1080.0"/>
      <point x="1191.0" y="905.0"/>
      <point x="1192.0" y="723.0" type="qcurve" smooth="yes"/>
      <point x="1196.0" y="0.0" type="line"/>
      <point x="1015.0" y="0.0" type="line"/>
      <point x="1011.0" y="721.0" type="line" smooth="yes"/>
      <point x="1010.0" y="851.0"/>
      <point x="838.0" y="960.0"/>
      <point x="730.0" y="960.0" type="qcurve" smooth="yes"/>
      <point x="620.0" y="960.0"/>
      <point x="338.0" y="743.0"/>
      <point x="263.0" y="594.0" type="qcurve"/>
    </contour>
  </outline>
</glyph>
<glyph name="j" format="2">
  <advance width="716.0"/>
  <outline>
    <contour>
      <point x="520.0" y="-28.0" type="line" smooth="yes"/>
      <point x="520.0" y="-313.0"/>
      <point x="262.0" y="-498.0"/>
      <point x="24.0" y="-498.0" type="qcurve" smooth="yes"/>
      <point x="-60.0" y="-498.0"/>
      <point x="-128.0" y="-489.0"/>
      <point x="-151.0" y="-481.0" type="qcurve"/>
      <point x="-144.0" y="-334.0" type="line"/>
      <point x="-122.0" y="-339.0"/>
      <point x="-43.0" y="-354.0"/>
      <point x="20.0" y="-354.0" type="qcurve" smooth="yes"/>
      <point x="154.0" y="-354.0"/>
      <point x="344.0" y="-213.0"/>
      <point x="344.0" y="-13.0" type="qcurve" smooth="yes"/>
      <point x="344.0" y="1042.0" type="line"/>
      <point x="520.0" y="1042.0" type="line"/>
    </contour>
    <contour>
      <point x="427.0" y="1322.0" type="line" smooth="yes"/>
      <point x="485.0" y="1322.0"/>
      <point x="539.0" y="1382.0"/>
      <point x="539.0" y="1427.0" type="qcurve" smooth="yes"/>
      <point x="539.0" y="1434.0" type="line" smooth="yes"/>
      <point x="539.0" y="1479.0"/>
      <point x="486.0" y="1540.0"/>
      <point x="427.0" y="1540.0" type="qcurve" smooth="yes"/>
      <point x="425.0" y="1540.0" type="line" smooth="yes"/>
      <point x="370.0" y="1540.0"/>
      <point x="318.0" y="1479.0"/>
      <point x="318.0" y="1434.0" type="qcurve" smooth="yes"/>
      <point x="318.0" y="1427.0" type="line" smooth="yes"/>
      <point x="318.0" y="1381.0"/>
      <point x="369.0" y="1322.0"/>
      <point x="425.0" y="1322.0" type="qcurve" smooth="yes"/>
    </contour>
    <contour>
      <point x="362.0" y="900.0" type="line"/>
      <point x="30.0" y="880.0" type="line"/>
      <point x="30.0" y="1022.0" type="line"/>
      <point x="362.0" y="1042.0" type="line"/>
    </contour>
  </outline>
</glyph>
<glyph name="k" format="2">
  <advance width="1186.0"/>
  <outline>
    <contour>
      <point x="196.0" y="0.0" type="line"/>
      <point x="196.0" y="1540.0" type="line"/>
      <point x="376.0" y="1540.0" type="line"/>
      <point x="376.0" y="0.0" type="line"/>
    </contour>
    <contour>
      <point x="655.0" y="553.0" type="line"/>
      <point x="358.0" y="273.0" type="line"/>
      <point x="358.0" y="393.0" type="line"/>
      <point x="597.0" y="624.0" type="line"/>
      <point x="991.0" y="1040.0" type="line"/>
      <point x="1182.0" y="1040.0" type="line"/>
      <point x="768.0" y="601.0" type="line"/>
    </contour>
    <contour>
      <point x="741.0" y="695.0" type="line"/>
      <point x="1253.0" y="0.0" type="line"/>
      <point x="1054.0" y="0.0" type="line"/>
      <point x="608.0" y="599.0" type="line"/>
    </contour>
  </outline>
</glyph>
<glyph name="n" format="2">
  <advance width="1365.0"/>
  <outline>
    <contour>
      <point x="195.0" y="0.0" type="line"/>
      <point x="195.0" y="1040.0" type="line"/>
      <point x="365.0" y="1040.0" type="line"/>
      <point x="375.0" y="0.0" type="line"/>
    </contour>
    <contour>
      <point x="237.0" y="666.0" type="line"/>
      <point x="278.0" y="820.0"/>
      <point x="600.0" y="1080.0"/>
      <point x="798.0" y="1080.0" type="qcurve" smooth="yes"/>
      <point x="973.0" y="1080.0"/>
      <point x="1196.0" y="905.0"/>
      <point x="1196.0" y="723.0" type="qcurve" smooth="yes"/>
      <point x="1195.0" y="0.0" type="line"/>
      <point x="1014.0" y="0.0" type="line"/>
      <point x="1014.0" y="721.0" type="line" smooth="yes"/>
      <point x="1014.0" y="844.0"/>
      <point x="837.0" y="960.0"/>
      <point x="729.0" y="960.0" type="qcurve" smooth="yes"/>
      <point x="619.0" y="960.0"/>
      <point x="338.0" y="743.0"/>
      <point x="263.0" y="594.0" type="qcurve"/>
    </contour>
  </outline>
</glyph>
<glyph name="percent" format="2">
  <advance width="2279.0"/>
  <outline>
    <contour>
      <point x="513.0" y="594.0" type="line" smooth="yes"/>
      <point x="351.0" y="594.0"/>
      <point x="107.0" y="846.0"/>
      <point x="107.0" y="1046.0" type="qcurve" smooth="yes"/>
      <point x="107.0" y="1077.0" type="line" smooth="yes"/>
      <point x="107.0" y="1278.0"/>
      <point x="349.0" y="1540.0"/>
      <point x="510.0" y="1540.0" type="qcurve" smooth="yes"/>
      <point x="515.0" y="1540.0" type="line" smooth="yes"/>
      <point x="680.0" y="1540.0"/>
      <point x="921.0" y="1278.0"/>
      <point x="921.0" y="1077.0" type="qcurve" smooth="yes"/>
      <point x="921.0" y="1046.0" type="line" smooth="yes"/>
      <point x="921.0" y="846.0"/>
      <point x="684.0" y="594.0"/>
      <point x="518.0" y="594.0" type="qcurve" smooth="yes"/>
    </contour>
    <contour>
      <point x="514.0" y="743.0" type="line" smooth="yes"/>
      <point x="644.0" y="743.0"/>
      <point x="796.0" y="915.0"/>
      <point x="796.0" y="1053.0" type="qcurve" smooth="yes"/>
      <point x="796.0" y="1076.0" type="line" smooth="yes"/>
      <point x="796.0" y="1217.0"/>
      <point x="647.0" y="1396.0"/>
      <point x="514.0" y="1396.0" type="qcurve" smooth="yes"/>
      <point x="509.0" y="1396.0" type="line" smooth="yes"/>
      <point x="386.0" y="1396.0"/>
      <point x="239.0" y="1217.0"/>
      <point x="239.0" y="1076.0" type="qcurve" smooth="yes"/>
      <point x="239.0" y="1053.0" type="line" smooth="yes"/>
      <point x="239.0" y="915.0"/>
      <point x="382.0" y="743.0"/>
      <point x="509.0" y="743.0" type="qcurve" smooth="yes"/>
    </contour>
    <contour>
      <point x="1757.0" y="-29.0" type="line" smooth="yes"/>
      <point x="1595.0" y="-29.0"/>
      <point x="1361.0" y="223.0"/>
      <point x="1361.0" y="423.0" type="qcurve" smooth="yes"/>
      <point x="1361.0" y="454.0" type="line" smooth="yes"/>
      <point x="1361.0" y="655.0"/>
      <point x="1593.0" y="917.0"/>
      <point x="1754.0" y="917.0" type="qcurve" smooth="yes"/>
      <point x="1759.0" y="917.0" type="line" smooth="yes"/>
      <point x="1924.0" y="917.0"/>
      <point x="2175.0" y="655.0"/>
      <point x="2175.0" y="454.0" type="qcurve" smooth="yes"/>
      <point x="2175.0" y="423.0" type="line" smooth="yes"/>
      <point x="2175.0" y="223.0"/>
      <point x="1928.0" y="-29.0"/>
      <point x="1762.0" y="-29.0" type="qcurve" smooth="yes"/>
    </contour>
    <contour>
      <point x="1758.0" y="120.0" type="line" smooth="yes"/>
      <point x="1888.0" y="120.0"/>
      <point x="2040.0" y="292.0"/>
      <point x="2040.0" y="430.0" type="qcurve" smooth="yes"/>
      <point x="2040.0" y="453.0" type="line" smooth="yes"/>
      <point x="2040.0" y="594.0"/>
      <point x="1891.0" y="773.0"/>
      <point x="1758.0" y="773.0" type="qcurve" smooth="yes"/>
      <point x="1753.0" y="773.0" type="line" smooth="yes"/>
      <point x="1630.0" y="773.0"/>
      <point x="1483.0" y="594.0"/>
      <point x="1483.0" y="453.0" type="qcurve" smooth="yes"/>
      <point x="1483.0" y="430.0" type="line" smooth="yes"/>
      <point x="1483.0" y="292.0"/>
      <point x="1626.0" y="120.0"/>
      <point x="1753.0" y="120.0" type="qcurve" smooth="yes"/>
    </contour>
    <contour>
      <point x="646.0" y="0.0" type="line"/>
      <point x="1486.0" y="1500.0" type="line"/>
      <point x="1633.0" y="1500.0" type="line"/>
      <point x="793.0" y="0.0" type="line"/>
    </contour>
  </outline>
</glyph>
<glyph name="period" format="2">
  <advance width="760.0"/>
  <outline>
    <contour>
      <point x="379.0" y="-10.0" type="line" smooth="yes"/>
      <point x="425.0" y="-10.0"/>
      <point x="494.0" y="79.0"/>
      <point x="494.0" y="153.0" type="qcurve" smooth="yes"/>
      <point x="494.0" y="182.0" type="line" smooth="yes"/>
      <point x="494.0" y="259.0"/>
      <point x="428.0" y="346.0"/>
      <point x="379.0" y="346.0" type="qcurve" smooth="yes"/>
      <point x="377.0" y="346.0" type="line" smooth="yes"/>
      <point x="332.0" y="346.0"/>
      <point x="266.0" y="259.0"/>
      <point x="266.0" y="182.0" type="qcurve" smooth="yes"/>
      <point x="266.0" y="153.0" type="line" smooth="yes"/>
      <point x="266.0" y="74.0"/>
      <point x="330.0" y="-10.0"/>
      <point x="377.0" y="-10.0" type="qcurve" smooth="yes"/>
    </contour>
  </outline>
</glyph>
<glyph name="plus" format="2">
  <advance width="1500.0"/>
  <outline>
    <contour>
      <point x="1276.0" y="680.0" type="line"/>
      <point x="216.0" y="680.0" type="line"/>
      <point x="216.0" y="845.0" type="line"/>
      <point x="1276.0" y="845.0" type="line"/>
    </contour>
    <contour>
      <point x="838.0" y="1292.0" type="line"/>
      <point x="838.0" y="232.0" type="line"/>
      <point x="653.0" y="232.0" type="line"/>
      <point x="653.0" y="1292.0" type="line"/>
    </contour>
  </outline>
</glyph>
<glyph name="t" format="2">
  <advance width="787.0"/>
  <outline>
    <contour>
      <point x="758.0" y="916.0" type="line"/>
      <point x="57.0" y="916.0" type="line"/>
      <point x="57.0" y="1037.0" type="line"/>
      <point x="758.0" y="1037.0" type="line"/>
    </contour>
    <contour>
      <point x="403.0" y="397.0" type="line" smooth="yes"/>
      <point x="403.0" y="242.0"/>
      <point x="513.0" y="81.0"/>
      <point x="598.0" y="81.0" type="qcurve" smooth="yes"/>
      <point x="667.0" y="81.0"/>
      <point x="760.0" y="114.0"/>
      <point x="768.0" y="121.0" type="qcurve"/>
      <point x="770.0" y="19.0" type="line"/>
      <point x="729.0" y="-3.0"/>
      <point x="624.0" y="-22.0"/>
      <point x="551.0" y="-22.0" type="qcurve"/>
      <point x="417.0" y="-22.0"/>
      <point x="239.0" y="199.0"/>
      <point x="239.0" y="377.0" type="qcurve" smooth="yes"/>
      <point x="239.0" y="1299.0" type="line"/>
      <point x="403.0" y="1299.0" type="line"/>
    </contour>
  </outline>
</glyph>
